<svg width="123" height="33" viewBox="0 0 123 33" fill="none" xmlns="http://www.w3.org/2000/svg">
<path d="M47.752 22.272H47.704C47.288 22.976 46.728 23.488 46.024 23.808C45.32 24.128 44.56 24.288 43.744 24.288C42.848 24.288 42.048 24.136 41.344 23.832C40.656 23.512 40.064 23.08 39.568 22.536C39.072 21.992 38.696 21.352 38.44 20.616C38.184 19.88 38.056 19.088 38.056 18.24C38.056 17.392 38.192 16.6 38.464 15.864C38.736 15.128 39.112 14.488 39.592 13.944C40.088 13.4 40.68 12.976 41.368 12.672C42.056 12.352 42.808 12.192 43.624 12.192C44.168 12.192 44.648 12.248 45.064 12.36C45.48 12.472 45.848 12.616 46.168 12.792C46.488 12.968 46.76 13.16 46.984 13.368C47.208 13.56 47.392 13.752 47.536 13.944H47.608V5.856H50.488V24H47.752V22.272ZM40.936 18.24C40.936 18.688 41.008 19.12 41.152 19.536C41.312 19.952 41.536 20.32 41.824 20.64C42.128 20.96 42.488 21.216 42.904 21.408C43.32 21.6 43.792 21.696 44.32 21.696C44.848 21.696 45.32 21.6 45.736 21.408C46.152 21.216 46.504 20.96 46.792 20.64C47.096 20.32 47.32 19.952 47.464 19.536C47.624 19.12 47.704 18.688 47.704 18.24C47.704 17.792 47.624 17.36 47.464 16.944C47.32 16.528 47.096 16.16 46.792 15.84C46.504 15.52 46.152 15.264 45.736 15.072C45.32 14.88 44.848 14.784 44.32 14.784C43.792 14.784 43.32 14.88 42.904 15.072C42.488 15.264 42.128 15.52 41.824 15.84C41.536 16.16 41.312 16.528 41.152 16.944C41.008 17.36 40.936 17.792 40.936 18.24ZM60.9492 22.416H60.8772C60.4612 23.072 59.9332 23.552 59.2932 23.856C58.6532 24.144 57.9492 24.288 57.1812 24.288C56.6532 24.288 56.1332 24.216 55.6212 24.072C55.1252 23.928 54.6772 23.712 54.2772 23.424C53.8932 23.136 53.5812 22.776 53.3412 22.344C53.1012 21.912 52.9812 21.408 52.9812 20.832C52.9812 20.208 53.0932 19.68 53.3172 19.248C53.5412 18.8 53.8372 18.432 54.2052 18.144C54.5892 17.84 55.0292 17.6 55.5252 17.424C56.0212 17.248 56.5332 17.12 57.0612 17.04C57.6052 16.944 58.1492 16.888 58.6932 16.872C59.2372 16.84 59.7492 16.824 60.2292 16.824H60.9492V16.512C60.9492 15.792 60.7012 15.256 60.2052 14.904C59.7092 14.536 59.0772 14.352 58.3092 14.352C57.7012 14.352 57.1332 14.464 56.6052 14.688C56.0772 14.896 55.6212 15.184 55.2372 15.552L53.7252 14.04C54.3652 13.384 55.1092 12.912 55.9572 12.624C56.8212 12.336 57.7092 12.192 58.6212 12.192C59.4372 12.192 60.1252 12.288 60.6852 12.48C61.2452 12.656 61.7092 12.888 62.0772 13.176C62.4452 13.464 62.7252 13.8 62.9172 14.184C63.1252 14.552 63.2692 14.928 63.3492 15.312C63.4452 15.696 63.5012 16.072 63.5172 16.44C63.5332 16.792 63.5412 17.104 63.5412 17.376V24H60.9492V22.416ZM60.7812 18.84H60.1812C59.7812 18.84 59.3332 18.856 58.8372 18.888C58.3412 18.92 57.8692 19 57.4212 19.128C56.9892 19.24 56.6212 19.416 56.3172 19.656C56.0132 19.88 55.8612 20.2 55.8612 20.616C55.8612 20.888 55.9172 21.12 56.0292 21.312C56.1572 21.488 56.3172 21.64 56.5092 21.768C56.7012 21.896 56.9172 21.992 57.1572 22.056C57.3972 22.104 57.6372 22.128 57.8772 22.128C58.8692 22.128 59.5972 21.896 60.0612 21.432C60.5412 20.952 60.7812 20.304 60.7812 19.488V18.84ZM66.0638 18.24C66.0638 17.328 66.2238 16.504 66.5438 15.768C66.8798 15.016 67.3278 14.376 67.8878 13.848C68.4478 13.32 69.1118 12.912 69.8798 12.624C70.6478 12.336 71.4638 12.192 72.3278 12.192C73.1918 12.192 74.0078 12.336 74.7758 12.624C75.5438 12.912 76.2078 13.32 76.7678 13.848C77.3278 14.376 77.7678 15.016 78.0878 15.768C78.4238 16.504 78.5918 17.328 78.5918 18.24C78.5918 19.152 78.4238 19.984 78.0878 20.736C77.7678 21.472 77.3278 22.104 76.7678 22.632C76.2078 23.16 75.5438 23.568 74.7758 23.856C74.0078 24.144 73.1918 24.288 72.3278 24.288C71.4638 24.288 70.6478 24.144 69.8798 23.856C69.1118 23.568 68.4478 23.16 67.8878 22.632C67.3278 22.104 66.8798 21.472 66.5438 20.736C66.2238 19.984 66.0638 19.152 66.0638 18.24ZM68.9438 18.24C68.9438 18.688 69.0158 19.12 69.1598 19.536C69.3198 19.952 69.5438 20.32 69.8318 20.64C70.1358 20.96 70.4958 21.216 70.9118 21.408C71.3278 21.6 71.7998 21.696 72.3278 21.696C72.8558 21.696 73.3278 21.6 73.7438 21.408C74.1598 21.216 74.5118 20.96 74.7998 20.64C75.1038 20.32 75.3278 19.952 75.4718 19.536C75.6318 19.12 75.7118 18.688 75.7118 18.24C75.7118 17.792 75.6318 17.36 75.4718 16.944C75.3278 16.528 75.1038 16.16 74.7998 15.84C74.5118 15.52 74.1598 15.264 73.7438 15.072C73.3278 14.88 72.8558 14.784 72.3278 14.784C71.7998 14.784 71.3278 14.88 70.9118 15.072C70.4958 15.264 70.1358 15.52 69.8318 15.84C69.5438 16.16 69.3198 16.528 69.1598 16.944C69.0158 17.36 68.9438 17.792 68.9438 18.24ZM91.2698 14.088H91.3178C91.5418 13.608 91.9338 13.176 92.4938 12.792C93.0698 12.392 93.8058 12.192 94.7018 12.192C95.4698 12.192 96.1178 12.32 96.6458 12.576C97.1898 12.832 97.6298 13.168 97.9658 13.584C98.3018 14 98.5418 14.48 98.6858 15.024C98.8298 15.568 98.9018 16.136 98.9018 16.728V24H96.0218V18.168C96.0218 17.848 96.0058 17.496 95.9738 17.112C95.9418 16.712 95.8538 16.344 95.7098 16.008C95.5818 15.656 95.3738 15.368 95.0858 15.144C94.7978 14.904 94.4058 14.784 93.9098 14.784C93.4298 14.784 93.0218 14.864 92.6858 15.024C92.3658 15.184 92.0938 15.4 91.8698 15.672C91.6618 15.944 91.5098 16.256 91.4138 16.608C91.3178 16.96 91.2698 17.328 91.2698 17.712V24H88.3898V5.856H91.2698V14.088ZM109.371 22.416H109.299C108.883 23.072 108.355 23.552 107.715 23.856C107.075 24.144 106.371 24.288 105.603 24.288C105.075 24.288 104.555 24.216 104.043 24.072C103.547 23.928 103.099 23.712 102.699 23.424C102.315 23.136 102.003 22.776 101.763 22.344C101.523 21.912 101.403 21.408 101.403 20.832C101.403 20.208 101.515 19.68 101.739 19.248C101.963 18.8 102.259 18.432 102.627 18.144C103.011 17.84 103.451 17.6 103.947 17.424C104.443 17.248 104.955 17.12 105.483 17.04C106.027 16.944 106.571 16.888 107.115 16.872C107.659 16.84 108.171 16.824 108.651 16.824H109.371V16.512C109.371 15.792 109.123 15.256 108.627 14.904C108.131 14.536 107.499 14.352 106.731 14.352C106.123 14.352 105.555 14.464 105.027 14.688C104.499 14.896 104.043 15.184 103.659 15.552L102.147 14.04C102.787 13.384 103.531 12.912 104.379 12.624C105.243 12.336 106.131 12.192 107.043 12.192C107.859 12.192 108.547 12.288 109.107 12.48C109.667 12.656 110.131 12.888 110.499 13.176C110.867 13.464 111.147 13.8 111.339 14.184C111.547 14.552 111.691 14.928 111.771 15.312C111.867 15.696 111.923 16.072 111.939 16.44C111.955 16.792 111.963 17.104 111.963 17.376V24H109.371V22.416ZM109.203 18.84H108.603C108.203 18.84 107.755 18.856 107.259 18.888C106.763 18.92 106.291 19 105.843 19.128C105.411 19.24 105.043 19.416 104.739 19.656C104.435 19.88 104.283 20.2 104.283 20.616C104.283 20.888 104.339 21.12 104.451 21.312C104.579 21.488 104.739 21.64 104.931 21.768C105.123 21.896 105.339 21.992 105.579 22.056C105.819 22.104 106.059 22.128 106.299 22.128C107.291 22.128 108.019 21.896 108.483 21.432C108.963 20.952 109.203 20.304 109.203 19.488V18.84ZM113.718 14.928V12.48H116.094V9.144H118.974V12.48H122.142V14.928H118.974V19.968C118.974 20.544 119.078 21 119.286 21.336C119.51 21.672 119.942 21.84 120.582 21.84C120.838 21.84 121.118 21.816 121.422 21.768C121.726 21.704 121.966 21.608 122.142 21.48V23.904C121.838 24.048 121.462 24.144 121.014 24.192C120.582 24.256 120.198 24.288 119.862 24.288C119.094 24.288 118.462 24.2 117.966 24.024C117.486 23.864 117.102 23.616 116.814 23.28C116.542 22.928 116.35 22.496 116.238 21.984C116.142 21.472 116.094 20.88 116.094 20.208V14.928H113.718Z" fill="white"/>
<rect y="17" width="6" height="9" fill="white"/>
<rect x="10" y="5" width="15" height="21" fill="white"/>
</svg>
